<svg id="Layer_2" data-name="Layer 2" xmlns="http://www.w3.org/2000/svg" viewBox="0 0 500 500"><defs><style>.cls-1{fill:none;stroke:#ed1c24;stroke-miterlimit:10;stroke-width:3px;}</style></defs><title>Artboard 1</title><path class="cls-1" d="M124.75,386.89c-57.51,22.24-83,14-83,14-5.52,12.12,7.32,45,7.32,45-95-81.11,41-194.67,41-194.67.18-108,173.62-225.18,315.76-149.23,0,0,42.3-5.38,53.33,1.67,0,0-17.54,12.84-30.38,13.2,0,0,60.76,16.46,62,25.68,0,0-39.24-1.27-57.69-10.31,0,0,164.2,101.09-308.33,254.62"/><path class="cls-1" d="M225.84,319.8C170.32,345.66,51,369.72,41.75,400.91"/><path class="cls-1" d="M233.36,231.8c-4.52,18.53-20.3,35.58-33.87,35.58s-24.57-12-24.57-26.77,11.41-23.45,24.57-26.77C229.74,206.2,238.79,209.51,233.36,231.8Z"/></svg>